<svg xmlns="http://www.w3.org/2000/svg" version="1.1" xmlns:xlink="http://www.w3.org/1999/xlink" xmlns:svgjs="http://svgjs.dev/svgjs" viewBox="0 0 1422 800" opacity="1"><g stroke-width="7" stroke="hsl(0, 100%, 51%)" fill="none" stroke-linecap="round"><path d="M 0 632 Q 355.5 400 711 400 Q 1066.5 400 1422 632" opacity="0.50"></path><path d="M 0 553 Q 355.5 400 711 400 Q 1066.5 400 1422 553" opacity="0.75"></path><path d="M 0 474 Q 355.5 400 711 400 Q 1066.5 400 1422 474" opacity="0.36"></path><path d="M 0 395 Q 355.5 400 711 400 Q 1066.5 400 1422 395" opacity="0.15"></path><path d="M 0 316 Q 355.5 400 711 400 Q 1066.5 400 1422 316" opacity="0.79"></path><path d="M 0 237 Q 355.5 400 711 400 Q 1066.5 400 1422 237" opacity="0.63"></path><path d="M 0 158 Q 355.5 400 711 400 Q 1066.5 400 1422 158" opacity="0.98"></path></g></svg>