<svg width="879" height="1928" viewBox="0 0 879 1928" fill="none" xmlns="http://www.w3.org/2000/svg">
<path d="M682.5 13.5C433.167 147.167 1.73189 427 26.2317 987.5C49.9795 1530.79 672.475 1421 775.231 1209C870.231 1013 878.499 688 555.499 587.48C157.513 463.623 -89.4997 962 59.5002 1184C208.5 1406 459.257 1480.31 732.5 1290.31C934.999 1149.5 871 882.5 755.5 767C640 651.5 351.001 528.373 144.501 728.873C-61.9989 929.373 14.9292 1409.43 296.5 1684.87C382.5 1769 528 1860.5 665.999 1913.5" stroke="url(#paint0_linear_373_62)" stroke-width="30"/>
<defs>
<linearGradient id="paint0_linear_373_62" x1="81.5" y1="363.5" x2="698" y2="1914" gradientUnits="userSpaceOnUse">
<stop stop-color="#FF0000"/>
<stop offset="1" stop-color="#990000"/>
</linearGradient>
</defs>
</svg>
