<svg xmlns="http://www.w3.org/2000/svg" xmlns:xlink="http://www.w3.org/1999/xlink" version="1.1" width="256" height="256" viewBox="-5 -5 266 266" xml:space="preserve">
  <defs>
  </defs>
  <g style="stroke: none; stroke-width: 0; stroke-dasharray: none; stroke-linecap: butt; stroke-linejoin: miter; stroke-miterlimit: 10; fill: none; fill-rule: nonzero; opacity: 1;" transform="translate(1.4065934065934016 1.4065934065934016) scale(2.81 2.81)">
    <path d="M 66.878 37.366 c -0.781 -0.781 -2.047 -0.781 -2.828 0 L 47 54.415 V 2 c 0 -1.104 -0.896 -2 -2 -2 s -2 0.896 -2 2 v 52.415 L 25.95 37.366 c -0.78 -0.781 -2.048 -0.781 -2.828 0 c -0.781 0.781 -0.781 2.047 0 2.828 l 20.463 20.462 c 0.093 0.094 0.196 0.177 0.307 0.251 c 0.048 0.032 0.099 0.053 0.148 0.081 c 0.065 0.036 0.127 0.075 0.196 0.103 c 0.065 0.027 0.133 0.042 0.2 0.062 c 0.058 0.017 0.113 0.039 0.173 0.051 c 0.129 0.026 0.26 0.039 0.392 0.039 s 0.262 -0.014 0.392 -0.039 c 0.06 -0.012 0.115 -0.034 0.173 -0.051 c 0.067 -0.02 0.135 -0.035 0.2 -0.062 c 0.069 -0.028 0.131 -0.067 0.196 -0.103 c 0.049 -0.027 0.101 -0.049 0.148 -0.081 c 0.11 -0.074 0.213 -0.157 0.307 -0.251 l 20.463 -20.462 C 67.659 39.413 67.659 38.146 66.878 37.366 z" style="stroke: #F50129; stroke-width: 3; stroke-dasharray: none; stroke-linecap: butt; stroke-linejoin: miter; stroke-miterlimit: 10; fill: #F50129; fill-rule: nonzero; opacity: 1;" transform="matrix(1 0 0 1 0 0)" stroke-linecap="round" />
    <path d="M 45 90 C 20.187 90 0 69.813 0 45 C 0 26.412 11.681 9.498 29.066 2.913 c 1.034 -0.393 2.188 0.129 2.579 1.162 c 0.392 1.033 -0.129 2.188 -1.162 2.579 C 14.643 12.653 4 28.064 4 45 c 0 22.607 18.393 41 41 41 s 41 -18.393 41 -41 c 0 -16.936 -10.643 -32.347 -26.483 -38.347 c -1.033 -0.391 -1.554 -1.545 -1.162 -2.579 c 0.391 -1.033 1.548 -1.553 2.578 -1.162 C 78.319 9.498 90 26.412 90 45 C 90 69.813 69.813 90 45 90 z" style="stroke: #F50129; stroke-width: 3; stroke-dasharray: none; stroke-linecap: butt; stroke-linejoin: miter; stroke-miterlimit: 10; fill: #F50129; fill-rule: nonzero; opacity: 1;" transform="matrix(1 0 0 1 0 0)" stroke-linecap="round" />
  </g>
</svg>
