<svg width="1198" height="179" viewBox="0 0 1198 179" fill="none" xmlns="http://www.w3.org/2000/svg">
<path d="M6.64062 128.399C279.689 114.296 227.412 53.8741 412.489 12.2149C424.335 9.55282 436.436 8.09432 448.565 7.83944C524.931 6.21102 699.024 9.75106 755.697 8.20761L758.666 8.46249C804.85 8.46249 842.044 47.0206 839.895 93.7633C837.972 135.493 804.172 169.364 762.511 171.276C715.86 173.428 677.352 136.173 677.352 89.9117C677.352 47.1056 710.305 12.0167 752.192 8.71737C769.509 8.71737 786.784 10.8839 803.536 15.3018C959.703 56.4796 931.543 111.435 1191.36 124.845" stroke="#048E00" stroke-width="4" stroke-miterlimit="10"/>
<path d="M5.00098 80.8349C283.648 98.8608 219.934 27.9326 422.795 9.62349C426.64 9.26948 430.513 9.09956 434.387 9.0854L651.596 8.873L652.628 8.83052C655.073 8.83052 657.476 8.9438 659.866 9.14204C701.385 12.8095 733.941 47.7285 733.941 90.2797C733.941 135.267 697.54 171.729 652.628 171.729C607.716 171.729 571.314 135.267 571.314 90.2797C571.314 45.2929 606.09 10.4873 649.588 8.88716L661.265 8.83052C661.265 8.83052 749.972 5.72944 773.142 7.62691C983.41 25.0439 911.582 97.5722 1192.99 79.3623" stroke="#D8A100" stroke-width="4" stroke-miterlimit="10"/>
<path d="M1.21191 42.6593C280.085 84.5733 215.65 6.32433 426.625 6.72081C429.664 6.53673 529.045 5.10655 548.511 6.98985L551.381 7.01817C595.275 8.17931 630.503 47.0206 630.503 91.2711C630.503 135.522 594.102 172.72 549.19 172.72C504.277 172.72 467.876 136.258 467.876 91.2711C467.876 46.2843 503.995 7.27306 548.652 6.98985L554.321 7.08897C554.321 7.08897 744.204 6.0836 771.361 6.69249C982.335 6.296 917.915 84.545 1196.79 42.631" stroke="#0292AA" stroke-width="4" stroke-miterlimit="10"/>
<path d="M14.3447 10.728L439.927 7.40039L445.511 7.34375C484.599 5.87109 516.506 39.02 524.535 78.6685C533.469 122.749 505.041 165.739 461.033 174.703C417.026 183.652 374.107 155.176 365.159 111.095C356.225 67.0146 384.597 16.4487 428.604 7.49951L446.572 7.34375L1183.65 2.41602" stroke="#B5041A" stroke-width="4" stroke-miterlimit="10"/>
</svg>
