<svg width="1305" height="173" viewBox="0 0 1305 173" fill="none" xmlns="http://www.w3.org/2000/svg">
<path d="M114.564 16.8633H516.303" stroke="#ED1C24" stroke-width="4" stroke-miterlimit="10"/>
<path d="M505.338 18.3959C546.847 9.96524 587.331 36.7812 595.762 78.2919C612.05 178.793 469.629 207.688 445.442 108.819C437.013 67.3106 463.829 26.8266 505.338 18.3959Z" stroke="#ED1C24" stroke-width="4" stroke-miterlimit="10"/>
<path d="M837.274 16.8633H1239.01" stroke="#ED1C24" stroke-width="4" stroke-miterlimit="10"/>
<path d="M516.304 16.8633H837.273" stroke="#ED1C24" stroke-width="4" stroke-miterlimit="10"/>
<path d="M1237.08 130.176C978.68 116.86 1028.5 58.2624 851.81 19.0291" stroke="#13E572" stroke-width="4" stroke-miterlimit="10"/>
<path d="M1240.95 50.4645C977.93 89.9232 1038.69 16.2485 839.704 16.6219C814.088 16.0459 634.534 17.5939 634.534 17.5939" stroke="#2BC8F9" stroke-width="4" stroke-miterlimit="10"/>
<path d="M700.777 93.5567C700.777 135.914 666.44 170.25 624.084 170.25C522.351 166.211 522.38 20.8873 624.084 16.8633C666.44 16.8633 700.777 51.1993 700.777 93.5567Z" stroke="#2BC8F9" stroke-width="4" stroke-miterlimit="10"/>
<path d="M633.969 17.3819C615.621 15.6073 519.125 16.4833 516.253 16.6526C317.263 16.2793 378.029 89.9553 115.005 50.4953" stroke="#2BC8F9" stroke-width="4" stroke-miterlimit="10"/>
<path d="M1237.08 84.4063C944.189 105.617 1031.55 0.848951 734.144 16.9649" stroke="#F4E745" stroke-width="4" stroke-miterlimit="10"/>
<path d="M804.017 93.3145C804.017 135.672 769.679 170.008 727.323 170.008C625.59 165.969 625.619 20.6452 727.323 16.6212C769.679 16.6212 804.017 50.9572 804.017 93.3145Z" stroke="#F4E745" stroke-width="4" stroke-miterlimit="10"/>
<path d="M729.012 16.6552L521.476 16.8579C517.83 16.8619 514.175 17.0339 510.543 17.3606C319.211 34.5966 379.303 101.387 116.492 84.4086" stroke="#F4E745" stroke-width="4" stroke-miterlimit="10"/>
<path d="M831.046 16.8614C873.404 16.8614 907.74 51.1988 907.74 93.5548C903.701 195.288 758.377 195.259 754.353 93.5548C754.353 51.1988 788.689 16.8614 831.046 16.8614Z" stroke="#13E572" stroke-width="4" stroke-miterlimit="10"/>
<path d="M823.542 17.2459C770.107 18.7005 606.011 15.3752 533.944 16.8992C522.49 17.1405 511.084 18.4992 499.904 21.0099C325.26 60.2312 374.612 117.15 117.051 130.422" stroke="#13E572" stroke-width="4" stroke-miterlimit="10"/>
<path d="M1249.12 12.8294H1239.38C1237.41 12.8294 1235.82 14.6454 1235.82 16.8854C1235.82 19.1254 1237.41 20.9414 1239.38 20.9414H1249.16C1249.15 20.7867 1249.12 20.6414 1249.12 20.4827V12.8294Z" fill="#B5041A"/>
<path d="M1283.2 10.5367H1263.42C1259.88 10.5367 1256.36 9.82869 1252.95 8.43402C1251.03 7.64736 1249.12 9.74736 1249.12 12.6514V20.482C1249.12 23.386 1251.03 25.486 1252.95 24.6994C1256.36 23.3047 1259.88 22.5967 1263.42 22.5967H1283.2C1284.14 22.5967 1285.07 23.2287 1286.01 24.134C1288.04 26.1007 1290.56 27.3047 1293.22 27.3047H1301.02C1302.95 27.3047 1304.52 25.5234 1304.53 23.318V9.81535C1304.53 9.35669 1304.47 8.89536 1304.37 8.43936C1303.95 6.64336 1302.44 5.45802 1300.81 5.45802H1293.71C1290.91 5.45802 1288.28 6.73936 1286.17 8.84202C1285.18 9.83002 1284.19 10.5367 1283.2 10.5367Z" fill="#D30F1E"/>
<path d="M1248.92 44.5204L1240.17 46.0257C1238.4 46.3297 1237.28 48.3657 1237.66 50.5737C1238.04 52.7804 1239.78 54.3244 1241.54 54.0204L1250.33 52.5084C1250.3 52.3591 1250.25 52.2191 1250.22 52.0631L1248.92 44.5204Z" fill="#0292AA"/>
<path d="M1279.16 36.9956L1261.39 40.0529C1258.2 40.5996 1254.92 40.4476 1251.62 39.5996C1249.76 39.1209 1248.4 41.4849 1248.89 44.3463L1250.22 52.0649C1250.71 54.9263 1252.78 56.7009 1254.37 55.6303C1257.2 53.7276 1260.25 52.4849 1263.43 51.9383L1281.2 48.8809C1282.04 48.7356 1282.99 49.2143 1283.99 49.9609C1286.15 51.5849 1288.61 52.3836 1291.01 51.9716L1298.01 50.7676C1299.75 50.4676 1300.86 48.4689 1300.49 46.2943L1298.2 32.9876C1298.12 32.5356 1298 32.0889 1297.82 31.6569C1297.14 29.9516 1295.58 29.0169 1294.12 29.2676L1287.74 30.3649C1285.23 30.7983 1283.08 32.4676 1281.54 34.8649C1280.82 35.9916 1280.05 36.8423 1279.16 36.9956Z" fill="#0DAACE"/>
<path d="M1245.52 80.31L1236.66 80.966C1234.88 81.098 1233.56 83.0166 1233.73 85.25C1233.89 87.4846 1235.48 89.1873 1237.26 89.0553L1246.16 88.3966C1246.13 88.2446 1246.1 88.1006 1246.09 87.942L1245.52 80.31Z" fill="#D8A100"/>
<path d="M1276.34 75.7288L1258.36 77.0608C1255.14 77.2995 1251.88 76.8315 1248.68 75.6688C1246.87 75.0141 1245.29 77.2381 1245.51 80.1328L1246.09 87.9435C1246.3 90.8381 1248.19 92.8048 1249.88 91.8915C1252.87 90.2701 1256.03 89.3261 1259.25 89.0875L1277.23 87.7555C1278.08 87.6928 1278.98 88.2608 1279.9 89.0995C1281.89 90.9235 1284.27 91.9555 1286.69 91.7768L1293.78 91.2515C1295.54 91.1208 1296.83 89.2381 1296.68 87.0381L1295.68 73.5728C1295.65 73.1155 1295.56 72.6595 1295.43 72.2115C1294.92 70.4488 1293.46 69.3675 1291.98 69.4781L1285.52 69.9555C1282.98 70.1448 1280.68 71.5995 1278.92 73.8381C1278.09 74.8901 1277.24 75.6621 1276.34 75.7288Z" fill="#D8BE00"/>
<path d="M1247.14 125.686L1238.26 125.961C1236.47 126.017 1235.07 127.877 1235.14 130.116C1235.21 132.354 1236.72 134.125 1238.51 134.069L1247.42 133.793C1247.41 133.64 1247.38 133.494 1247.38 133.336L1247.14 125.686Z" fill="#048E00"/>
<path d="M1278.12 122.433L1260.1 122.992C1256.87 123.092 1253.64 122.484 1250.49 121.187C1248.71 120.455 1247.04 122.608 1247.13 125.509L1247.38 133.337C1247.47 136.239 1249.27 138.284 1250.99 137.444C1254.06 135.953 1257.25 135.147 1260.47 135.047L1278.5 134.488C1279.35 134.461 1280.23 135.067 1281.11 135.945C1283.02 137.853 1285.35 138.985 1287.78 138.911L1294.88 138.691C1296.64 138.636 1298.02 136.809 1297.96 134.605L1297.54 121.109C1297.53 120.651 1297.46 120.192 1297.35 119.739C1296.91 117.956 1295.5 116.813 1294.01 116.859L1287.55 117.06C1285 117.139 1282.63 118.495 1280.78 120.655C1279.91 121.671 1279.03 122.405 1278.12 122.433Z" fill="#09B552"/>
<path d="M99.5608 11.3936C99.5608 8.58694 102.095 6.31227 105.221 6.31227H112.869C118.905 6.31227 123.798 10.7043 123.798 16.1229V14.4003C123.798 19.8176 118.905 24.2109 112.869 24.2109H105.221C102.095 24.2109 99.5608 21.9349 99.5608 19.1296V11.3936Z" fill="#B5041A"/>
<path d="M64.9294 25.0698C68.8094 23.0285 76.6227 19.8098 99.6721 20.1285C99.6001 19.8058 99.5601 19.4712 99.5601 19.1285V11.3925C99.5601 11.0498 99.6001 10.7152 99.6721 10.3912C76.6227 10.7098 68.8094 7.49251 64.9294 5.45118C58.2028 1.90984 43.0454 -5.59816 41.7708 7.78717V22.7325C43.0454 36.1178 58.2028 28.6098 64.9294 25.0698Z" fill="#D30F1E"/>
<path d="M2.04063 17.4219H41.7713V14.2352H21.3753C15.2126 14.2352 12.6633 12.3232 4.58997 13.3845C-3.48337 14.4472 2.04063 17.4219 2.04063 17.4219Z" fill="#A3A8A3"/>
<path d="M105.739 46.3349C105.983 43.5843 108.511 41.5616 111.386 41.8176L118.419 42.4403C123.97 42.9323 128.088 47.6363 127.618 52.9456L127.767 51.2576C127.296 56.5683 122.415 60.4736 116.864 59.9816L109.831 59.3576C106.956 59.1029 104.823 56.6669 105.067 53.9163L105.739 46.3349Z" fill="#0292AA"/>
<path d="M72.7021 56.9163C76.4474 55.231 83.9128 52.715 105.082 54.907C105.043 54.583 105.037 54.2523 105.067 53.9163L105.739 46.335C105.769 45.999 105.834 45.675 105.929 45.363C84.7034 43.7963 77.7981 40.0056 74.4074 37.6883C68.5288 33.6696 55.2421 25.0763 52.9061 38.091L51.6074 52.7376C51.6168 65.9603 66.2088 59.8376 72.7021 56.9163Z" fill="#0DAACE"/>
<path d="M15.5314 44.2952L52.0688 47.5352L52.3461 44.4112C48.0888 44.0338 37.9994 43.1392 33.5888 42.7485C27.9221 42.2458 25.7434 40.1645 18.2274 40.5472C10.7101 40.9298 15.5314 44.2952 15.5314 44.2952Z" fill="#A3A8A3"/>
<path d="M99.0085 80.9752C99.0099 78.2138 101.35 75.9765 104.235 75.9778L111.297 75.9805C116.87 75.9818 121.386 80.3045 121.383 85.6352L121.385 83.9405C121.383 89.2712 116.865 93.5912 111.291 93.5898L104.23 93.5872C101.345 93.5858 99.0059 91.3472 99.0059 88.5872L99.0085 80.9752Z" fill="#D8A100"/>
<path d="M67.0311 94.4215C70.6138 92.4135 77.8285 89.2495 99.1085 89.5695C99.0418 89.2509 99.0058 88.9229 99.0058 88.5855L99.0085 80.9735C99.0085 80.6362 99.0445 80.3082 99.1111 79.9895C77.8325 80.2962 70.6191 77.1282 67.0365 75.1175C60.8285 71.6322 46.8365 64.2415 45.6551 77.4109L45.6511 92.1149C46.8231 105.286 60.8205 97.9029 67.0311 94.4215Z" fill="#D8BE00"/>
<path d="M8.97108 86.88L45.6524 86.8906L45.6537 83.756C41.3791 83.7546 31.2497 83.7506 26.8217 83.7493C21.1337 83.748 18.7804 81.8653 11.3258 82.9093C3.87242 83.952 8.97108 86.88 8.97108 86.88Z" fill="#A3A8A3"/>
<path d="M97.4821 128.096C97.3501 125.339 99.5808 122.991 102.463 122.854L109.517 122.516C115.082 122.251 119.801 126.352 120.055 131.676L119.974 129.984C120.229 135.308 115.922 139.84 110.357 140.107L103.303 140.443C100.421 140.58 97.9768 138.456 97.8448 135.699L97.4821 128.096Z" fill="#048E00"/>
<path d="M66.187 143.066C69.6697 140.888 76.7244 137.382 97.995 136.68C97.9124 136.366 97.8617 136.038 97.8457 135.702L97.4817 128.099C97.4657 127.762 97.487 127.431 97.5377 127.11C76.2977 128.438 68.9404 125.62 65.267 123.784C58.8977 120.6 44.567 113.89 44.019 127.1L44.7204 141.788C46.5244 154.887 60.1497 146.842 66.187 143.066Z" fill="#09B552"/>
<path d="M7.83199 138.316L44.472 136.567L44.3213 133.435C40.052 133.639 29.9347 134.122 25.512 134.332C19.8307 134.604 17.3893 132.838 9.99333 134.236C2.59866 135.636 7.83199 138.316 7.83199 138.316Z" fill="#A3A8A3"/>
</svg>
