<svg width="1128" height="160" viewBox="0 0 1128 160" fill="none" xmlns="http://www.w3.org/2000/svg">
<path d="M0.564453 4.12109H402.303" stroke="#ED1C24" stroke-width="4" stroke-miterlimit="10"/>
<path d="M391.338 5.65772C432.847 -2.77294 473.331 24.0431 481.762 65.5524C498.05 166.055 355.629 194.95 331.442 96.0804C323.013 54.5711 349.829 14.0884 391.338 5.65772Z" stroke="#ED1C24" stroke-width="4" stroke-miterlimit="10"/>
<path d="M723.274 4.12109H1125.01" stroke="#ED1C24" stroke-width="4" stroke-miterlimit="10"/>
<path d="M402.304 4.12109H723.273" stroke="#ED1C24" stroke-width="4" stroke-miterlimit="10"/>
<path d="M1123.08 117.438C864.68 104.121 914.499 45.5242 737.81 6.29083" stroke="#13E572" stroke-width="4" stroke-miterlimit="10"/>
<path d="M1126.95 37.7263C863.93 77.1849 924.695 3.51027 725.704 3.8836C700.088 3.3076 520.534 4.8556 520.534 4.8556" stroke="#2BC8F9" stroke-width="4" stroke-miterlimit="10"/>
<path d="M586.777 80.8145C586.777 123.172 552.44 157.508 510.084 157.508C408.351 153.469 408.38 8.14515 510.084 4.12115C552.44 4.12115 586.777 38.4572 586.777 80.8145Z" stroke="#2BC8F9" stroke-width="4" stroke-miterlimit="10"/>
<path d="M519.969 4.64365C501.621 2.86899 405.125 3.74499 402.253 3.91432C203.263 3.54099 264.029 77.217 1.00537 37.757" stroke="#2BC8F9" stroke-width="4" stroke-miterlimit="10"/>
<path d="M1123.08 71.668C830.189 92.8787 917.548 -11.8893 620.144 4.22667" stroke="#F4E745" stroke-width="4" stroke-miterlimit="10"/>
<path d="M690.017 80.5762C690.017 122.934 655.679 157.27 613.323 157.27C511.59 153.231 511.619 7.90687 613.323 3.88287C655.679 3.88287 690.017 38.2189 690.017 80.5762Z" stroke="#F4E745" stroke-width="4" stroke-miterlimit="10"/>
<path d="M615.012 3.91696L407.476 4.11962C403.83 4.12362 400.175 4.29429 396.543 4.62229C205.211 21.8583 265.303 88.6489 2.49243 71.6703" stroke="#F4E745" stroke-width="4" stroke-miterlimit="10"/>
<path d="M717.046 4.12314C759.404 4.12314 793.74 38.4605 793.74 80.8165C789.701 182.55 644.377 182.52 640.353 80.8165C640.353 38.4605 674.689 4.12314 717.046 4.12314Z" stroke="#13E572" stroke-width="4" stroke-miterlimit="10"/>
<path d="M709.542 4.5076C656.107 5.96226 492.011 2.63693 419.944 4.16093C408.49 4.40226 397.084 5.76093 385.904 8.27159C211.26 47.4929 260.612 104.412 3.05103 117.684" stroke="#13E572" stroke-width="4" stroke-miterlimit="10"/>
</svg>
