<?xml version="1.0" encoding="UTF-8"?>
<svg id="Layer_1" data-name="Layer 1" xmlns="http://www.w3.org/2000/svg" version="1.1" viewBox="0 0 1723.2 343.5">
  <defs>
    <style>
      .cls-1 {
        stroke: #c1c142;
      }

      .cls-1, .cls-2, .cls-3, .cls-4, .cls-5, .cls-6, .cls-7, .cls-8, .cls-9 {
        fill: none;
        stroke-width: 4px;
      }

      .cls-2 {
        stroke: #b6b6b6;
      }

      .cls-3 {
        stroke: #ff6d2c;
      }

      .cls-4 {
        stroke: #d816bd;
      }

      .cls-5 {
        stroke: #ed2939;
      }

      .cls-6 {
        stroke: #4050c1;
      }

      .cls-7 {
        stroke: #eaeaea;
      }

      .cls-8 {
        stroke: #ea0329;
      }

      .cls-9 {
        stroke: #dadada;
      }
    </style>
  </defs>
  <path class="cls-3" d="M162.5,321.5c145.5,0,191,3.3,269-16,57.5-17,70.5-26,128.5-81,41.5-34.5,57.5-36.5,92.5-43,19.7-3.7,31-19.3,48-18.8,15.6,0,24.4,10.5,46.7,18.5,7.4,2.7,15.5,3.5,22.7.3,17.4-7.8,34.1-26.7,49.6-26.3,16.4,0,36.5,22.8,55.9,30,5.8,2.2,12.3,1.6,18-.8,20.8-8.9,33.2-28.9,51.1-29.2,12.8-.3,22.1,12.1,40.5,21.8,12.7,6.7,27.7,8.3,40.4,1.6,13.1-7,26.9-17.4,40.7-16.3,19.2,1.4,31.8,6.8,42.3,11.9,8.4,4.1,17.3,7.1,26.4,9.3,23.8,5.7,35.2,9.2,61.8,24,43.5,24.4,48.5,45.5,106,80,66,41,188.5,33.5,300,33.5"/>
  <path class="cls-6" d="M162.5,246c147,0,277,0,310-14,38-10.5,82.5-30,98-38.5,26-11.5,18-8.8,71-19.8,15-2.5,44-4.8,55.5-2.5,20,4,21,10.5,41.5,11,16,0,40-27,57-26.5,15.7,0,28.3,17.8,51.8,27.7,7.2,3,15.4,3.8,22.6.6,17.5-7.9,34.6-27.2,50.2-26.8,16.4,0,34.2,21.9,52.9,28.9,5.8,2.2,12.3,1.6,18-.7,20.8-8.1,33.1-24.9,51-25.2,7-.1,17.4,4.3,27.9,9.2,23.5,10.8,49.7,8.7,75.5,9.2,38,.6,54.5,10.7,73.5,16.9,45.7,19.6,60,33.7,124,42.2,77,10.3,98.5,7.8,259.5,8.8"/>
  <path class="cls-8" d="M162.5,172.5c147.5.3,294.5-.3,380.5-.3,25.5,1.2,42.3,1.5,55.9,1.4,41.1-.3,82.3-8.5,123.1-3.9,4.5.5,9.7,1.3,15.5,2.5,13,2.7,41,8,52.5,5.7,20-4,31.5-20.2,53-20.2s44.5,30,61.5,29.5c15.7,0,26.8-18.2,49.8-28.1,7.2-3.1,15.4-3.8,22.6-.8,17.9,7.3,36,24.9,51.6,24.5,16.8,0,36.3-14.4,55.8-18.8,5-1.1,10.3-.7,15.4.2,29.8,5.6,33.5,8.7,52.3,9.1,16.8.3,47-1.5,66-1.5h68.5c53.5,0,55,1.2,117,1.2s33.5-1.8,199-1.2"/>
  <path class="cls-4" d="M162.5,97c150.5,0,261-.2,323.5,18,27.5,8,64,27.5,100,38,23.9,7,48.5,9.2,63.5,13.2,16.8,4.5,17.5,9.1,36,11,24,2.5,41.8-17.5,61.5-17.5s41.5,27.8,58.5,27.3c15.7,0,29.1-16.9,52.8-26.6,7.3-3,15.5-3.8,22.5-.4,17.2,8.3,33.2,28.4,48.7,28,16.4,0,34.2-21.9,52.9-28.9,5.8-2.2,12.2-1.6,18.1.5,21.2,7.6,35.1,22.2,53,22.5,16.8.3,32-19.5,72-17,71.5,0,84.5-14.1,108-25.2,51.5-24.5,71.2-28.6,114-35,70.5-10.5,109-7.5,254.5-7.5"/>
  <path class="cls-1" d="M163,22.5c144.8-1.7,194.5-2.5,265,14,56.5,13.2,133.7,79.5,145.5,89.5,13.2,11.1,45.9,24.2,85.3,35.2,2.5.7,4.9,1.6,7.3,2.7,13.6,6.2,37.6,15.5,48,15.9,20,0,38.5-22.5,60-22.5s41,30.5,58,30c15.7,0,28.3-17.8,51.8-27.7,7.2-3,15.4-3.8,22.5-.5,17.5,8.3,34.6,28.6,50.2,28.2,16.4,0,35.3-20.1,54.4-26.6,5.9-2,12.3-1.4,18.2.5,20.4,6.6,31.6,17.1,49.5,17.5,16.8.3,18.5-10,51.5-18.5,44-10.7,40-8.2,62-21.7,40-26.5,42.5-39.6,99-76.5,52-34,146.5-43.1,310.5-39.5"/>
  <g>
    <path class="cls-7" d="M4.4,24.5h51.8v-4.2h-26.6c-8,0-11.3-2.5-21.9-1.1-10.5,1.4-3.3,5.3-3.3,5.3Z"/>
    <path class="cls-5" d="M131.5,21.7"/>
    <path class="cls-1" d="M86.3,34.5c5.1-2.7,15.2-6.9,45.3-6.4,0-.4-.1-.9-.1-1.3v-10.1c0-.4,0-.9.1-1.3-30,.4-40.2-3.8-45.3-6.4-8.8-4.6-28.5-14.4-30.2,3v19.5c1.7,17.4,21.4,7.7,30.2,3Z"/>
    <path class="cls-2" d="M131.5,16.7c0-3.7,3.3-6.6,7.4-6.6h10c7.9,0,14.2,5.7,14.2,12.8h0s0-2.2,0-2.2h0c0,7.1-6.4,12.8-14.2,12.8h-10c-4.1,0-7.4-3-7.4-6.6v-10.1Z"/>
  </g>
  <g>
    <path class="cls-7" d="M4.4,99.9h51.8v-4.2h-26.6c-8,0-11.3-2.5-21.9-1.1-10.5,1.4-3.3,5.3-3.3,5.3Z"/>
    <path class="cls-5" d="M131.5,97"/>
    <path class="cls-4" d="M86.3,109.8c5.1-2.7,15.2-6.9,45.3-6.4,0-.4-.1-.9-.1-1.3v-10.1c0-.4,0-.9.1-1.3-30,.4-40.2-3.8-45.3-6.4-8.8-4.6-28.5-14.4-30.2,3v19.5c1.7,17.4,21.4,7.7,30.2,3Z"/>
    <path class="cls-2" d="M131.5,92c0-3.7,3.3-6.6,7.4-6.6h10c7.9,0,14.2,5.7,14.2,12.8h0s0-2.2,0-2.2h0c0,7.1-6.4,12.8-14.2,12.8h-10c-4.1,0-7.4-3-7.4-6.6v-10.1Z"/>
  </g>
  <g>
    <path class="cls-7" d="M4.4,178.9h51.8v-4.2h-26.6c-8,0-11.3-2.5-21.9-1.1-10.5,1.4-3.3,5.3-3.3,5.3Z"/>
    <path class="cls-5" d="M131.5,176.1"/>
    <path class="cls-8" d="M86.3,188.9c5.1-2.7,15.2-6.9,45.3-6.4,0-.4-.1-.9-.1-1.3v-10.1c0-.4,0-.9.1-1.3-30,.4-40.2-3.8-45.3-6.4-8.8-4.6-28.5-14.4-30.2,3v19.5c1.7,17.4,21.4,7.7,30.2,3Z"/>
    <path class="cls-2" d="M131.5,171.1c0-3.7,3.3-6.6,7.4-6.6h10c7.9,0,14.2,5.7,14.2,12.8h0s0-2.2,0-2.2h0c0,7.1-6.4,12.8-14.2,12.8h-10c-4.1,0-7.4-3-7.4-6.6v-10.1Z"/>
  </g>
  <g>
    <path class="cls-7" d="M4.4,249.4h51.8v-4.2h-26.6c-8,0-11.3-2.5-21.9-1.1-10.5,1.4-3.3,5.3-3.3,5.3Z"/>
    <path class="cls-5" d="M131.5,246.5"/>
    <path class="cls-6" d="M86.3,259.3c5.1-2.7,15.2-6.9,45.3-6.4,0-.4-.1-.9-.1-1.3v-10.1c0-.4,0-.9.1-1.3-30,.4-40.2-3.8-45.3-6.4-8.8-4.6-28.5-14.4-30.2,3v19.5c1.7,17.4,21.4,7.7,30.2,3Z"/>
    <path class="cls-2" d="M131.5,241.5c0-3.7,3.3-6.6,7.4-6.6h10c7.9,0,14.2,5.7,14.2,12.8h0s0-2.2,0-2.2h0c0,7.1-6.4,12.8-14.2,12.8h-10c-4.1,0-7.4-3-7.4-6.6v-10.1Z"/>
  </g>
  <g>
    <path class="cls-7" d="M4.4,324.6h51.8v-4.2h-26.6c-8,0-11.3-2.5-21.9-1.1-10.5,1.4-3.3,5.3-3.3,5.3Z"/>
    <path class="cls-5" d="M131.5,321.8"/>
    <path class="cls-3" d="M86.3,334.5c5.1-2.7,15.2-6.9,45.3-6.4,0-.4-.1-.9-.1-1.3v-10.1c0-.4,0-.9.1-1.3-30,.4-40.2-3.8-45.3-6.4-8.8-4.6-28.5-14.4-30.2,3v19.5c1.7,17.4,21.4,7.7,30.2,3Z"/>
    <path class="cls-2" d="M131.5,316.7c0-3.7,3.3-6.6,7.4-6.6h10c7.9,0,14.2,5.7,14.2,12.8h0s0-2.2,0-2.2h0c0,7.1-6.4,12.8-14.2,12.8h-10c-4.1,0-7.4-3-7.4-6.6v-10.1Z"/>
  </g>
  <g>
    <path class="cls-1" d="M1684.1,11.5h-34.5c-6.2,0-12.3-1.2-18.3-3.7h0c-3.3-1.4-6.7,2.3-6.7,7.3v13.6c0,5.1,3.3,8.7,6.7,7.3h0c5.9-2.4,12.1-3.7,18.3-3.7h34.5c1.6,0,3.3,1.1,4.9,2.7,3.5,3.4,7.9,5.5,12.6,5.5h13.6c3.4,0,6.1-3.1,6.1-6.9h0V10.3c0-.8,0-1.6-.3-2.4-.7-3.1-3.4-5.2-6.2-5.2h-12.4c-4.9,0-9.5,2.2-13.1,5.9s-3.5,3-5.2,3Z"/>
    <path class="cls-9" d="M1624.7,15.5h-17c-3.4,0-6.2,3.2-6.2,7.1s2.8,7.1,6.2,7.1h17c0-.3,0-.5,0-.8v-13.3Z"/>
  </g>
  <g>
    <path class="cls-8" d="M1675.9,150.6l-31,5.3c-5.5,1-11.3.7-17-.8h0c-3.2-.8-5.6,3.3-4.7,8.3l2.3,13.4c.9,5,4.5,8.1,7.2,6.2h0c4.9-3.3,10.2-5.5,15.8-6.4l31-5.3c1.5-.3,3.1.6,4.9,1.9,3.8,2.8,8.1,4.2,12.2,3.5l12.2-2.1c3-.5,5-4,4.3-7.8h0s-4-23.2-4-23.2c-.1-.8-.4-1.6-.7-2.3-1.2-3-3.9-4.6-6.5-4.2l-11.1,1.9c-4.4.8-8.1,3.7-10.8,7.8-1.3,2-2.6,3.4-4.2,3.7Z"/>
    <path class="cls-9" d="M1623.2,163.8l-15.3,2.6c-3.1.5-5,4.1-4.4,7.9.7,3.8,3.7,6.5,6.8,6l15.3-2.6c0-.3-.1-.5-.2-.8l-2.3-13.1Z"/>
  </g>
  <g>
    <path class="cls-6" d="M1675,229.7l-31.3,2.3c-5.6.4-11.3-.4-16.9-2.4h0c-3.1-1.1-5.9,2.7-5.5,7.8l1,13.6c.4,5,3.7,8.5,6.6,6.9h0c5.2-2.8,10.7-4.5,16.3-4.9l31.3-2.3c1.5-.1,3.1.9,4.7,2.3,3.5,3.2,7.6,5,11.8,4.7l12.3-.9c3.1-.2,5.3-3.5,5.1-7.3h0s-1.7-23.5-1.7-23.5c0-.8-.2-1.6-.4-2.4-.9-3.1-3.4-5-6-4.8l-11.2.8c-4.4.3-8.4,2.9-11.5,6.8-1.4,1.8-2.9,3.2-4.5,3.3Z"/>
    <path class="cls-9" d="M1621.3,237.7l-15.4,1.1c-3.1.2-5.4,3.6-5.1,7.5s3,6.9,6.2,6.6l15.5-1.1c0-.3,0-.5-.1-.8l-1-13.3Z"/>
  </g>
  <g>
    <path class="cls-4" d="M1675.8,85.4l-31.3,2.3c-5.6.4-11.3-.4-16.9-2.4h0c-3.1-1.1-5.9,2.7-5.5,7.8l1,13.6c.4,5,3.7,8.5,6.6,6.9h0c5.2-2.8,10.7-4.5,16.3-4.9l31.3-2.3c1.5-.1,3.1.9,4.7,2.3,3.5,3.2,7.6,5,11.8,4.7l12.3-.9c3.1-.2,5.3-3.5,5.1-7.3h0s-1.7-23.5-1.7-23.5c0-.8-.2-1.6-.4-2.4-.9-3.1-3.4-5-6-4.8l-11.2.8c-4.4.3-8.4,2.9-11.5,6.8-1.4,1.8-2.9,3.2-4.5,3.3Z"/>
    <path class="cls-9" d="M1622.1,93.3l-15.4,1.1c-3.1.2-5.4,3.6-5.1,7.5.3,3.9,3,6.9,6.2,6.6l15.5-1.1c0-.3,0-.5-.1-.8l-1-13.3Z"/>
  </g>
  <g>
    <path class="cls-3" d="M1678.5,309.4l-31.4,1c-5.6.2-11.3-.9-16.7-3.1h0c-3.1-1.3-6,2.5-5.8,7.5l.4,13.6c.2,5.1,3.3,8.6,6.3,7.2h0c5.3-2.6,10.9-4,16.5-4.2l31.4-1c1.5,0,3,1,4.5,2.5,3.3,3.3,7.4,5.3,11.6,5.2l12.4-.4c3.1,0,5.5-3.3,5.4-7.1h0s-.7-23.5-.7-23.5c0-.8-.1-1.6-.3-2.4-.8-3.1-3.2-5.1-5.8-5l-11.3.3c-4.4.1-8.6,2.5-11.8,6.3-1.5,1.8-3.1,3-4.6,3.1Z"/>
    <path class="cls-9" d="M1624.5,315.1l-15.5.5c-3.1,0-5.5,3.3-5.4,7.2s2.7,7,5.9,6.9l15.5-.5c0-.3,0-.5,0-.8l-.4-13.3Z"/>
  </g>
</svg>