<?xml version="1.0" encoding="UTF-8"?>
<svg id="svg-stroke" data-name="Layer 1" xmlns="http://www.w3.org/2000/svg" width="1723.2" height="900" version="1.1" viewBox="0 0 1920 1080">
  <defs>
    <style>
      .cls-xx {
        stroke: #b6b6b6;
      }

      .cls-xx, .cls-2, .cls-3, .cls-4, .cls-5, .cls-6, .cls-7, .cls-8 {
        fill: none;
        stroke-width: 6px;
      }

      .cls-2 {
        stroke: #ff2800;
      }

      .cls-3 {
        stroke: #c21807;
      }

      .cls-4 {
        stroke: #d21f3c;
      }

      .cls-5 {
        stroke: #dadada;
      }

      .cls-6 {
        stroke: #ff0800;
      }

      .cls-7 {
        stroke: #ed2939;
      }

      .cls-8 {
        stroke: #eaeaea;
      }
    </style>
  </defs>
  <g>
    <path class="cls-8 stroke-path" d="M146.4,392.4h34.4v-2.8h-17.6c-5.3,0-7.5-1.7-14.5-.7-7,.9-2.2,3.5-2.2,3.5Z"/>
    <path class="cls-7 stroke-path" d="M230.7,390.5"/>
    <path class="cls-2 stroke-path" d="M200.7,399c3.4-1.8,10.1-4.6,30.1-4.2,0-.3,0-.6,0-.9v-6.7c0-.3,0-.6,0-.9-19.9.3-26.7-2.5-30.1-4.2-5.8-3.1-18.9-9.6-20,2v12.9c1.1,11.5,14.2,5.1,20,2Z"/>
    <path class="cls-xx stroke-path" d="M230.7,387.2c0-2.5,2.2-4.4,4.9-4.4h6.6c5.2,0,9.4,3.8,9.4,8.5h0v-1.5h0c0,4.7-4.2,8.5-9.4,8.5h-6.6c-2.7,0-4.9-2-4.9-4.4v-6.7h0Z"/>
  </g>
  <g>
    <path class="cls-8 stroke-path" d="M146.4,465.8h34.4v-2.8h-17.6c-5.3,0-7.5-1.7-14.5-.7-7,.9-2.2,3.5-2.2,3.5Z"/>
    <path class="cls-7 stroke-path" d="M230.7,463.9"/>
    <path class="cls-6 stroke-path" d="M200.7,472.4c3.4-1.8,10.1-4.6,30.1-4.2,0-.3,0-.6,0-.9v-6.7c0-.3,0-.6,0-.9-19.9.3-26.7-2.5-30.1-4.2-5.8-3.1-18.9-9.6-20,2v12.9c1.1,11.5,14.2,5.1,20,2Z"/>
    <path class="cls-xx stroke-path" d="M230.7,460.5c0-2.5,2.2-4.4,4.9-4.4h6.6c5.2,0,9.4,3.8,9.4,8.5h0v-1.5h0c0,4.7-4.2,8.5-9.4,8.5h-6.6c-2.7,0-4.9-2-4.9-4.4v-6.7h0Z"/>
  </g>
  <g>
    <path class="cls-8 stroke-path" d="M146.4,543.5h34.4v-2.8h-17.6c-5.3,0-7.5-1.7-14.5-.7-7,.9-2.2,3.5-2.2,3.5Z"/>
    <path class="cls-7 stroke-path" d="M230.7,541.6"/>
    <path class="cls-4 stroke-path" d="M200.7,550.1c3.4-1.8,10.1-4.6,30.1-4.2,0-.3,0-.6,0-.9v-6.7c0-.3,0-.6,0-.9-19.9.3-26.7-2.5-30.1-4.2-5.8-3.1-18.9-9.6-20,2v12.9c1.1,11.5,14.2,5.1,20,2Z"/>
    <path class="cls-xx stroke-path" d="M230.7,538.3c0-2.5,2.2-4.4,4.9-4.4h6.6c5.2,0,9.4,3.8,9.4,8.5h0v-1.5h0c0,4.7-4.2,8.5-9.4,8.5h-6.6c-2.7,0-4.9-2-4.9-4.4v-6.7h0Z"/>
  </g>
  <g>
    <path class="cls-8 stroke-path" d="M146.4,617.3h34.4v-2.8h-17.6c-5.3,0-7.5-1.7-14.5-.7-7,.9-2.2,3.5-2.2,3.5Z"/>
    <path class="cls-7 stroke-path" d="M230.7,615.4"/>
    <path class="cls-3 stroke-path" d="M200.7,623.9c3.4-1.8,10.1-4.6,30.1-4.2,0-.3,0-.6,0-.9v-6.7c0-.3,0-.6,0-.9-19.9.3-26.7-2.5-30.1-4.2-5.8-3.1-18.9-9.6-20,2v12.9c1.1,11.5,14.2,5.1,20,2Z"/>
    <path class="cls-xx stroke-path" d="M230.7,612.1c0-2.5,2.2-4.4,4.9-4.4h6.6c5.2,0,9.4,3.8,9.4,8.5h0v-1.5h0c0,4.7-4.2,8.5-9.4,8.5h-6.6c-2.7,0-4.9-2-4.9-4.4v-6.7h0Z"/>
  </g>
  <g>
    <path class="cls-8 stroke-path" d="M146.4,692h34.4v-2.8h-17.6c-5.3,0-7.5-1.7-14.5-.7-7,.9-2.2,3.5-2.2,3.5h0Z"/>
    <path class="cls-7 stroke-path" d="M230.7,690.2"/>
    <path class="cls-7 stroke-path" d="M200.7,698.6c3.4-1.8,10.1-4.6,30.1-4.2,0-.3,0-.6,0-.9v-6.7c0-.3,0-.6,0-.9-19.9.3-26.7-2.5-30.1-4.2-5.8-3.1-18.9-9.6-20,2v12.9c1.1,11.5,14.2,5.1,20,2h0Z"/>
    <path class="cls-xx stroke-path" d="M230.7,686.8c0-2.5,2.2-4.4,4.9-4.4h6.6c5.2,0,9.4,3.8,9.4,8.5h0v-1.5h0c0,4.7-4.2,8.5-9.4,8.5h-6.6c-2.7,0-4.9-2-4.9-4.4v-6.7h0Z"/>
  </g>
  <path class="cls-7 stroke-path" d="M251.2,690.4c145.5,0,191,3.3,269-16,57.5-17,70.5-26,128.5-81,41.5-34.5,57.5-36.5,92.5-43,19.7-3.7,31-19.3,48-18.8,15.6,0,24.4,10.5,46.7,18.5,7.4,2.7,15.5,3.5,22.7.3,17.4-7.8,34.1-26.7,49.6-26.3,16.4,0,36.5,22.8,55.9,30,5.8,2.2,12.3,1.6,18-.8,20.8-8.9,33.2-28.9,51.1-29.2,12.8-.3,22.1,12.1,40.5,21.8,12.7,6.7,27.7,8.3,40.4,1.6,13.1-7,26.9-17.4,40.7-16.3,19.2,1.4,31.8,6.8,42.3,11.9,8.4,4.1,17.3,7.1,26.4,9.3,23.8,5.7,35.2,9.2,61.8,24,43.5,24.4,48.5,45.5,106,80,66,41,188.5,33.5,300,33.5"/>
  <path class="cls-3 stroke-path" d="M251.2,614.9c147,0,277,0,310-14,38-10.5,82.5-30,98-38.5,26-11.5,18-8.8,71-19.8,15-2.5,44-4.8,55.5-2.5,20,4,21,10.5,41.5,11,16,0,40-27,57-26.5,15.7,0,28.3,17.8,51.8,27.7,7.2,3,15.4,3.8,22.6.6,17.5-7.9,34.6-27.2,50.2-26.8,16.4,0,34.2,21.9,52.9,28.9,5.8,2.2,12.3,1.6,18-.7,20.8-8.1,33.1-24.9,51-25.2,7-.1,17.4,4.3,27.9,9.2,23.5,10.8,49.7,8.7,75.5,9.2,38,.6,54.5,10.7,73.5,16.9,45.7,19.6,60,33.7,124,42.2,77,10.3,98.5,7.8,259.5,8.8"/>
  <g>
    <path class="cls-3 stroke-path" d="M1743.8,603.5l-21.6,1.6c-3.9.3-7.8-.3-11.7-1.7h0c-2.1-.8-4.1,1.9-3.8,5.4l.7,9.4c.3,3.5,2.6,5.9,4.6,4.8h0c3.6-1.9,7.4-3.1,11.3-3.4l21.6-1.6c1,0,2.1.6,3.2,1.6,2.4,2.2,5.3,3.5,8.2,3.2l8.5-.6c2.1-.1,3.7-2.4,3.5-5h0l-1.2-16.2c0-.6-.1-1.1-.3-1.7-.6-2.1-2.4-3.5-4.1-3.3l-7.7.6c-3,.2-5.8,2-8,4.7-1,1.2-2,2.2-3.1,2.3h0Z"/>
    <path class="cls-5 stroke-path" d="M1706.6,609.1l-10.6.8c-2.1.1-3.7,2.5-3.5,5.2s2.1,4.8,4.3,4.6l10.7-.8c0-.2,0-.3,0-.6l-.7-9.2h0Z"/>
  </g>
  <g>
    <path class="cls-7 stroke-path" d="M1744.2,679.3l-21.7.7c-3.9.1-7.8-.6-11.5-2.1h0c-2.1-.9-4.1,1.7-4,5.2l.3,9.4c.1,3.5,2.3,5.9,4.4,5h0c3.7-1.8,7.5-2.8,11.4-2.9l21.7-.7c1,0,2.1.7,3.1,1.7,2.3,2.3,5.1,3.7,8,3.6l8.6-.3c2.1,0,3.8-2.3,3.7-4.9h0l-.5-16.2c0-.6,0-1.1-.2-1.7-.6-2.1-2.2-3.5-4-3.5l-7.8.2c-3,0-5.9,1.7-8.2,4.4-1,1.2-2.1,2.1-3.2,2.1h0Z"/>
    <path class="cls-5 stroke-path" d="M1706.9,683.2l-10.7.3c-2.1,0-3.8,2.3-3.7,5s1.9,4.8,4.1,4.8l10.7-.3v-.6l-.3-9.2h0Z"/>
  </g>
  <path class="cls-4 stroke-path" d="M251.2,541.4c147.5.3,294.5-.3,380.5-.3,25.5,1.2,42.3,1.5,55.9,1.4,41.1-.3,82.3-8.5,123.1-3.9,4.5.5,9.7,1.3,15.5,2.5,13,2.7,41,8,52.5,5.7,20-4,31.5-20.2,53-20.2s44.5,30,61.5,29.5c15.7,0,26.8-18.2,49.8-28.1,7.2-3.1,15.4-3.8,22.6-.8,17.9,7.3,36,24.9,51.6,24.5,16.8,0,36.3-14.4,55.8-18.8,5-1.1,10.3-.7,15.4.2,29.8,5.6,33.5,8.7,52.3,9.1,16.8.3,47-1.5,66-1.5h68.5c53.5,0,55,1.2,117,1.2s33.5-1.8,199-1.2"/>
  <path class="cls-6 stroke-path" d="M251.2,465.9c150.5,0,261-.2,323.5,18,27.5,8,64,27.5,100,38,23.9,7,48.5,9.2,63.5,13.2,16.8,4.5,17.5,9.1,36,11,24,2.5,41.8-17.5,61.5-17.5s41.5,27.8,58.5,27.3c15.7,0,29.1-16.9,52.8-26.6,7.3-3,15.5-3.8,22.5-.4,17.2,8.3,33.2,28.4,48.7,28,16.4,0,34.2-21.9,52.9-28.9,5.8-2.2,12.2-1.6,18.1.5,21.2,7.6,35.1,22.2,53,22.5,16.8.3,32-19.5,72-17,71.5,0,84.5-14.1,108-25.2,51.5-24.5,71.2-28.6,114-35,70.5-10.5,109-7.5,254.5-7.5"/>
  <g>
    <path class="cls-4 stroke-path" d="M1744.7,531.5h-21.7c-3.9.1-7.8-.7-11.5-2.4h0c-2.1-.9-4.2,1.6-4.2,5.1v9.4c0,3.5,2.2,6,4.2,5h0c3.7-1.7,7.6-2.6,11.5-2.6h21.7c1.1-.1,2,.7,3.1,1.8,2.3,2.3,5,3.8,7.9,3.8h8.6c2.1,0,3.9-2.2,3.8-4.9h0v-16.3c0-.6-.2-1.1-.3-1.6-.5-2.2-2.1-3.6-4-3.6h-7.8c-3.1,0-5.9,1.6-8.3,4.1-1.1,1.2-2.2,2-3.3,2h0Z"/>
    <path class="cls-5 stroke-path" d="M1707.3,534.5h-10.7c-2.2,0-3.9,2.3-3.9,4.9,0,2.7,1.8,4.9,4,4.9h10.7c0-.2,0-.4,0-.6v-9.2c0,0,0,0,0,0Z"/>
  </g>
  <g>
    <path class="cls-6 stroke-path" d="M1743.8,456.7l-21.6,1.6c-3.9.3-7.8-.3-11.7-1.7h0c-2.1-.8-4.1,1.9-3.8,5.4l.7,9.4c.3,3.5,2.6,5.9,4.6,4.8h0c3.6-1.9,7.4-3.1,11.3-3.4l21.6-1.6c1,0,2.1.6,3.2,1.6,2.4,2.2,5.3,3.5,8.2,3.2l8.5-.6c2.1-.1,3.7-2.4,3.5-5h0l-1.2-16.2c0-.6-.1-1.1-.3-1.7-.6-2.1-2.4-3.5-4.1-3.3l-7.7.6c-3,.2-5.8,2-8,4.7-1,1.2-2,2.2-3.1,2.3h0Z"/>
    <path class="cls-5 stroke-path" d="M1706.6,462.2l-10.6.8c-2.1.1-3.7,2.5-3.5,5.2s2.1,4.8,4.3,4.6l10.7-.8c0-.2,0-.3,0-.6l-.7-9.2h0Z"/>
  </g>
  <path class="cls-2 stroke-path" d="M251.7,391.4c144.8-1.7,194.5-2.5,265,14,56.5,13.2,133.7,79.5,145.5,89.5,13.2,11.1,45.9,24.2,85.3,35.2,2.5.7,4.9,1.6,7.3,2.7,13.6,6.2,37.6,15.5,48,15.9,20,0,38.5-22.5,60-22.5s41,30.5,58,30c15.7,0,28.3-17.8,51.8-27.7,7.2-3,15.4-3.8,22.5-.5,17.5,8.3,34.6,28.6,50.2,28.2,16.4,0,35.3-20.1,54.4-26.6,5.9-2,12.3-1.4,18.2.5,20.4,6.6,31.6,17.1,49.5,17.5,16.8.3,18.5-10,51.5-18.5,44-10.7,40-8.2,62-21.7,40-26.5,42.5-39.6,99-76.5,52-34,146.5-43.1,310.5-39.5"/>
  <g>
    <path class="cls-2 stroke-path" d="M1749.6,383.6h-23.9c-4.3,0-8.5-.8-12.7-2.6h0c-2.3-1-4.6,1.6-4.6,5v9.4c0,3.5,2.3,6,4.6,5h0c4.1-1.7,8.4-2.6,12.7-2.6h23.9c1.1,0,2.3.8,3.4,1.9,2.4,2.4,5.5,3.8,8.7,3.8h9.4c2.4,0,4.2-2.1,4.2-4.8h0v-16.1c0-.6,0-1.1-.2-1.7-.5-2.1-2.4-3.6-4.3-3.6h-8.6c-3.4,0-6.6,1.5-9.1,4.1s-2.4,2.1-3.6,2.1h0Z"/>
    <path class="cls-5 stroke-path" d="M1708.5,386.4h-11.8c-2.4,0-4.3,2.2-4.3,4.9s1.9,4.9,4.3,4.9h11.8v-9.7h0Z"/>
  </g>
</svg>